<svg xmlns="http://www.w3.org/2000/svg" viewBox="0 0 737 476" role="img" aria-label="Costa Gear"><rect width="737" height="476" fill="#000000"/><path d="M643 250L594 358L618 358L627 339L680 339L685 347L685 349L688 354L689 358L714 358L713 354L704 336L704 334L700 327L700 325L696 318L696 316L692 309L692 307L688 300L685 291L681 284L679 277L675 270L675 268L672 263L672 261L668 254L667 250ZM654 279L657 283L657 285L660 290L660 292L672 317L670 319L638 319L636 317L647 294L647 292L650 287L650 285ZM467 250L467 271L472 271L473 272L474 271L475 272L476 271L504 271L506 273L506 358L531 358L531 273L532 272L537 272L538 271L570 271L570 250ZM339 250L322 267L322 297L338 311L400 317L405 322L405 331L399 337L352 337L346 331L346 328L323 328L322 342L340 359L411 359L428 342L428 310L411 296L352 291L346 286L346 277L351 272L398 271L405 277L405 281L428 281L428 266L412 250ZM190 250L172 268L172 342L190 359L257 359L259 358L275 342L275 268L274 266L258 250ZM202 272L246 272L251 277L251 327L252 329L245 337L202 337L196 331L196 278ZM41 250L24 267L24 342L42 359L110 359L127 342L127 322L126 321L119 322L118 321L113 322L104 321L104 330L98 337L54 337L47 330L47 279L53 272L98 272L104 278L104 286L127 286L127 267L111 250ZM194 206L231 206L310 128L389 206L552 206L526 180L400 180L313 94L308 94Z" fill="#ffffff" fill-rule="evenodd"/><path d="M588 431L591 434L600 434L601 433L615 433L616 432L634 432L635 431L647 431L648 430L666 430L667 429L680 429L681 428L712 427L716 425L715 424L700 424L699 423L683 423L682 422L666 422L665 421L649 421L648 420L631 420L630 419L615 419L614 418L599 418L598 417L591 417L588 420ZM155 420L152 417L145 417L144 418L129 418L128 419L109 419L108 420L74 421L73 422L41 423L40 424L22 424L21 426L22 427L62 428L63 429L96 430L97 431L112 431L113 432L130 432L131 433L145 433L146 434L152 434L155 431ZM505 397L505 454L515 454L515 450L516 449L515 447L515 441L516 440L516 436L517 435L533 435L539 442L547 454L560 454L551 440L548 437L548 435L552 432L552 431L556 427L557 427L558 407L554 403L554 402L549 397ZM516 409L517 408L543 408L547 413L547 421L542 425L517 425L515 423ZM421 397L421 399L413 414L413 416L406 429L406 431L401 440L401 442L395 454L407 454L413 443L420 443L421 442L442 443L447 454L459 454L455 446L455 444L451 437L451 435L446 426L446 424L435 402L434 398L433 397ZM427 412L429 413L429 415L436 428L436 430L437 431L436 433L418 433L417 432ZM296 397L296 454L346 454L346 443L308 443L307 442L307 431L308 430L337 430L337 420L335 421L323 421L322 420L308 421L307 420L307 409L308 408L345 408L346 407L346 397ZM197 397L189 405L189 446L197 454L234 454L243 445L243 423L228 423L227 422L224 422L223 423L216 423L216 429L215 431L216 432L230 432L232 435L232 439L231 441L228 443L204 443L200 439L200 437L199 436L199 414L204 408L227 408L231 411L232 414L242 414L243 413L243 406L242 404L234 397ZM352 49L333 35L321 29L310 25L289 21L271 21L249 25L227 34L211 45L196 60L188 71L179 89L173 110L172 117L173 147L178 166L188 186L190 187L203 174L203 171L197 160L192 141L191 124L194 106L198 94L205 81L224 60L234 53L251 45L277 40L291 41L308 45L326 54L338 64Z" fill="#6f742d" fill-rule="evenodd"/></svg>